PathFileType	4	(X/Y/Z)	..\data\2015032\dynamic\2015032_C5_01.trc
DataRate	CameraRate	NumFrames	NumMarkers	Units	OrigDataRate	OrigDataStartFrame	OrigNumFrames
100.000000	100.000000	4	48	mm	100.000000	0	165
Frame#	Time	L_IAS			L_IPS			R_IPS			R_IAS			L_FTC			L_FLE			L_FAX			L_TTC			L_FAL			L_FCC			L_FM1			L_FM2			L_FM5			R_FTC			R_FLE			R_FAX			R_TTC			R_FAL			R_FCC			R_FM1			R_FM2			R_FM5			CV7			TV10			SXS			SJN			L_SIA			L_SRS			L_SAA			L_SAE			L_HLE			L_HME			L_UOA			L_RSP			L_UHE			L_HM2			L_HM5			R_SIA			R_SRS			R_SAA			R_SAE			R_HLE			R_HME			R_UOA			R_RSP			R_UHE			R_HM2			R_HM5			
		X1	Y1	Z1	X2	Y2	Z2	X3	Y3	Z3	X4	Y4	Z4	X5	Y5	Z5	X6	Y6	Z6	X7	Y7	Z7	X8	Y8	Z8	X9	Y9	Z9	X10	Y10	Z10	X11	Y11	Z11	X12	Y12	Z12	X13	Y13	Z13	X14	Y14	Z14	X15	Y15	Z15	X16	Y16	Z16	X17	Y17	Z17	X18	Y18	Z18	X19	Y19	Z19	X20	Y20	Z20	X21	Y21	Z21	X22	Y22	Z22	X23	Y23	Z23	X24	Y24	Z24	X25	Y25	Z25	X26	Y26	Z26	X27	Y27	Z27	X28	Y28	Z28	X29	Y29	Z29	X30	Y30	Z30	X31	Y31	Z31	X32	Y32	Z32	X33	Y33	Z33	X34	Y34	Z34	X35	Y35	Z35	X36	Y36	Z36	X37	Y37	Z37	X38	Y38	Z38	X39	Y39	Z39	X40	Y40	Z40	X41	Y41	Z41	X42	Y42	Z42	X43	Y43	Z43	X44	Y44	Z44	X45	Y45	Z45	X46	Y46	Z46	X47	Y47	Z47	X48	Y48	Z48	

1	0	-182.0979919433594	915.988952636719	-352.3706665039063	-336.0049743652344	915.7052001953127	-294.3908691406251	-338.9307861328126	924.182312011719	-186.4293823242188	-181.0809326171875	919.037780761719	-116.9416122436524	-233.7357482910157	836.0987548828127	-411.3724670410157	-81.3911590576172	439.782196044922	-358.9746704101563	-63.59074020385744	380.8161315917969	-357.8051757812501	-3.665454626083375	399.4969482421876	-310.6472778320313	50.30851364135744	68.90415954589845	-293.4100646972657	33.88122940063477	17.01382064819336	-240.6421813964844	206.3880004882813	101.8141403198242	-246.5604858398438	194.013412475586	97.81092834472659	-301.3092651367188	160.0882873535157	67.62425231933595	-332.4681091308594	-285.8720397949219	830.2883911132815	-70.49025726318361	-368.8833007812501	437.5135498046876	-117.5299148559571	-393.3542785644532	385.5892028808595	-124.6331863403321	-341.8703918457032	365.3545837402344	-180.3997497558594	-537.1009521484376	82.82797241210939	-213.212631225586	-575.8716430664064	53.56653213500978	-272.1358032226563	-385.5402832031251	19.0716667175293	-255.2761535644532	-392.0130615234376	27.9035816192627	-196.4359130859376	-449.4282836914064	14.77177619934082	-154.4110107421875	-320.3672790527344	1408.775146484375	-228.8754272460938	-385.8010864257814	1186.95458984375	-221.9725341796876	-200.8001403808594	1150.408935546875	-242.1435241699219	-222.6877746582032	1316.19775390625	-236.3544616699219	-412.541961669922	1212.760375976563	-327.5141601562501	-376.6744079589844	1335.687377929688	-325.3314208984376	-315.5432739257813	1345.377685546875	-418.8412170410157	-270.3410034179688	1341.599731445313	-432.1522216796876	-352.5186157226563	1040.283447265625	-456.4966735839845	-382.8159790039063	1039.759765625	-386.8548278808595	-392.6492309570314	1019.444091796875	-428.4726867675782	-327.5472106933594	787.787536621094	-426.0151367187501	-374.4613952636719	809.0083618164065	-480.5390625000001	-335.2422485351563	700.4783325195314	-425.9273986816407	-409.5939331054689	739.9201049804689	-483.9522399902345	-387.164276123047	1219.565063476563	-102.4691925048828	-359.6332702636719	1335.785522460938	-123.9561920166016	-284.3967895507813	1341.628540039063	-39.49470138549805	-237.4852752685547	1341.8896484375	-34.48312377929688	-190.5093994140625	1036.9755859375	17.42097663879395	-221.9279479980469	1017.646118164063	-48.78398895263673	-215.7180328369141	995.6175537109377	-1.899157643318177	-3.113799810409547	880.4074707031252	-54.50489807128908	-35.91194152832032	850.9185791015627	4.649426937103272	62.46759033203126	816.636169433594	-59.02084350585939	-6.591517448425295	783.6447753906252	6.627434730529787	
2	0.01	-167.663070678711	915.2537841796877	-352.0805358886719	-321.7916564941407	914.2166137695315	-294.7027282714844	-325.0706176757813	922.5031738281252	-186.8490905761719	-167.7157592773438	917.598815917969	-116.3175125122071	-218.8223419189454	835.239440917969	-411.281707763672	-67.46545410156251	438.5565795898439	-358.4972839355469	-49.27513885498048	379.7037048339844	-357.1147766113282	9.807107925415041	398.4681396484376	-308.9527587890626	64.95944213867189	68.41745758056642	-291.8793640136719	47.58448791503907	16.77855110168457	-239.5922851562501	220.2929840087891	101.65673828125	-242.8411102294922	208.7334899902344	97.67348480224612	-297.8142700195313	175.2127990722657	67.45598602294923	-329.3552856445313	-272.9226684570313	828.6398925781252	-70.83921813964845	-359.5046081542969	437.9339294433595	-118.0212097167969	-384.9634399414064	386.360565185547	-125.0590591430664	-333.3447570800782	364.7542724609376	-180.278549194336	-535.3392333984376	86.4235305786133	-212.8081970214844	-575.0460815429689	58.27633285522462	-271.7149353027344	-385.2690429687501	18.92994689941407	-255.0492248535157	-391.7904052734376	27.86353874206544	-196.2478027343751	-449.1610717773439	15.03279876708985	-154.6939392089844	-307.6458435058594	1407.43408203125	-229.7255096435547	-372.7847900390626	1185.524291992188	-222.5921020507813	-187.6494140625	1149.098510742188	-242.1506500244141	-209.7514953613282	1314.821899414063	-236.6813201904297	-399.1621398925782	1211.143432617188	-328.3468017578126	-363.2483825683594	1334.107788085938	-326.3190917968751	-301.7138977050782	1343.625	-419.6171264648439	-256.4926147460938	1339.799926757813	-432.7652282714845	-341.0544433593751	1038.863647460938	-455.1426086425782	-370.8540954589844	1039.244995117188	-385.2302246093751	-381.3684692382813	1019.110046386719	-426.6727294921876	-322.7104492187501	786.0892333984377	-425.692596435547	-369.2471313476563	808.818786621094	-479.9915466308595	-333.7059326171876	698.9459228515626	-425.4251098632814	-406.7719116210939	741.1181640625001	-483.2953491210939	-374.7222900390626	1218.236328125	-103.3295364379883	-347.2478637695313	1334.590454101563	-124.7885818481446	-272.0901184082032	1340.365600585938	-40.01078033447266	-225.3165588378907	1340.7587890625	-35.04344940185548	-176.0157928466797	1035.9912109375	16.49911880493164	-206.403060913086	1016.3828125	-50.05793762207033	-200.6479034423829	994.4112548828127	-3.125324249267579	13.60103607177735	882.0361938476565	-55.38332748413087	-19.25180625915528	852.049255371094	3.681696176528932	79.9962615966797	819.549255371094	-59.34866333007814	10.91228199005127	784.9489746093752	5.481396675109864	
3	0.02	-152.8948669433594	914.7922973632815	-351.8647155761719	-307.2503051757813	913.0697021484377	-295.0333862304688	-310.8218078613282	921.0626220703127	-187.2821655273438	-153.9598541259766	916.291198730469	-115.7678146362305	-203.5506744384766	834.7326660156252	-411.2152099609376	-53.24248123168947	437.7434082031251	-357.9660949707032	-35.06916809082032	378.9132690429688	-356.4562683105469	23.27363586425782	397.3738708496095	-307.3067321777344	77.24867248535158	67.60984802246095	-290.6704101562501	58.46967697143556	16.46252822875977	-238.7875061035157	232.1057891845704	99.76943969726565	-240.0098724365235	221.1264648437501	95.96692657470705	-295.1951904296876	187.6351165771485	66.08227539062501	-326.9346313476563	-259.5931091308594	827.161315917969	-71.28004455566408	-349.4921569824219	438.434783935547	-118.5626831054688	-375.9815368652344	387.2664794921876	-125.4887008666992	-324.1896972656251	364.1297912597657	-180.0518341064453	-533.2877807617189	90.41419982910158	-212.2351989746094	-573.8558959960939	63.51518630981447	-271.1368103027344	-385.0875244140626	18.66913795471192	-254.8958435058594	-391.5923461914064	27.73854064941407	-196.1091766357422	-448.8718872070314	15.25699138641358	-154.9926300048828	-294.9148559570313	1406.274291992188	-230.6119842529297	-359.5660400390626	1184.205444335938	-223.2280731201172	-174.2675476074219	1148.069580078125	-242.1919403076172	-196.7423400878907	1313.705444335938	-237.0355377197266	-385.6178283691407	1209.65576171875	-329.2214660644532	-349.7639465332032	1332.664916992188	-327.3256530761719	-287.8444824218751	1342.0947265625	-420.4091796875001	-242.5922241210938	1338.260986328125	-433.3956909179689	-329.3094482421876	1037.7177734375	-453.9729614257814	-358.6163330078126	1038.904663085938	-383.8208923339844	-369.8166809082032	1018.965270996094	-425.0758361816407	-317.1307678222657	784.812194824219	-425.3293762207032	-363.2190551757813	808.9331665039065	-479.5178527832032	-331.4059143066407	698.0059204101564	-424.7723083496095	-403.0511779785157	742.7109375000001	-482.6345214843751	-362.1301574707032	1217.005126953125	-104.2468338012696	-334.8109436035157	1333.52294921875	-125.6754302978516	-259.7790222167969	1339.302124023438	-40.5805778503418	-213.1629943847657	1339.860961914063	-35.60325622558594	-161.9210052490235	1035.169799804688	15.50027751922608	-191.3082427978516	1015.367492675781	-51.40733337402345	-186.0279388427735	993.4093017578127	-4.443982601165772	29.57649612426759	883.4179687500002	-56.30127334594728	-3.271126985549928	853.112731933594	2.653381824493409	96.73877716064456	822.2163696289065	-59.7562599182129	27.6302661895752	786.1503906250002	4.275448799133302	
4	0.03	-137.7984771728516	914.6217041015627	-351.7325744628907	-292.3923950195313	912.2966308593752	-295.3782653808594	-296.1979675292969	919.8789672851565	-187.7193145751953	-139.8096923828125	915.1223754882815	-115.314437866211	-187.9524383544922	834.6094970703127	-411.1821289062501	-38.80402755737305	437.3163146972657	-357.4238891601563	-21.01534461975098	378.4178771972657	-355.8573608398438	36.70992279052735	396.2437744140626	-305.7747497558594	87.37995910644533	66.52474212646486	-289.7326965332032	66.81066131591798	16.11757850646973	-238.1441650390626	242.0443572998047	96.2761154174805	-238.0648498535157	231.392074584961	92.77410125732423	-293.4591064453126	197.5462799072266	63.57048416137697	-325.1984558105469	-245.8663482666016	825.8541259765627	-71.80337524414064	-338.7598571777344	438.9648437500001	-119.1173400878907	-366.3183593750001	388.2669067382814	-125.8775711059571	-314.3207092285157	363.4267578125001	-179.6652069091797	-530.8540649414064	94.81789398193361	-211.4525604248047	-572.1641845703126	69.33194732666017	-270.3657226562501	-385.0405578613282	18.30078125	-254.8428802490235	-391.4478759765626	27.51942825317384	-196.0447998046876	-448.5763549804689	15.46140766143799	-155.3050537109375	-282.1640930175782	1405.304321289063	-231.5237274169922	-346.1383666992188	1183.011352539063	-223.8652496337891	-160.6420288085938	1147.345581054688	-242.2738952636719	-183.6524810791016	1312.86572265625	-237.4210052490235	-371.9049377441407	1208.299926757813	-330.1069335937501	-336.2303466796876	1331.363525390625	-328.3288879394532	-273.9650268554688	1340.801147460938	-421.2022399902345	-228.6735839843751	1337.002807617188	-434.0401306152345	-317.3200378417969	1036.864624023438	-453.0101318359376	-346.1422424316407	1038.74609375	-382.6447753906251	-358.0059814453126	1019.013427734375	-423.7136230468751	-310.7315673828126	783.942565917969	-424.9566955566407	-356.3236999511719	809.3165283203127	-479.1396789550782	-328.2428283691407	697.6210327148439	-423.975799560547	-398.3511047363282	744.6386108398439	-481.9932861328126	-349.3560180664063	1215.879516601563	-105.1965789794922	-322.2956848144532	1332.588500976563	-126.6015701293946	-247.4349517822266	1338.454711914063	-41.19914245605469	-200.9900054931641	1339.212036132813	-36.15512466430665	-148.2433776855469	1034.516845703125	14.45036602020264	-176.6853637695313	1014.613586425781	-52.80305099487306	-171.8856506347657	992.6196289062502	-5.826498985290528	44.82050704956055	884.598083496094	-57.25746536254884	12.01449966430664	854.0913696289065	1.559130668640137	112.6805038452149	824.5955810546877	-60.28136825561525	43.54648590087891	787.2416992187502	3.001848936080934	
